<svg xmlns="http://www.w3.org/2000/svg" width="1000" height="1000"><rect width="1000.03" height="1000.03" fill="#3d63dd" rx="73.75" ry="73.75"/><path fill="#fff" d="M619.07 849.87c-37.51 20.3-72.18 43.27-102.63 72.43-11.18 10.75-21.94 10.24-33.38-.17-73.47-66.84-159.41-108.31-256.88-126.29-24.17-4.47-48.52-6.8-73.12-7.4-16.86-.43-24.35-8.34-24.35-25.38V598.92c0-16.52 6.8-24 23.74-25.12 17.46-1.2 34.93.17 52.39 2.24 54.88 6.37 106.41 23.49 155.62 48.17.52.26 1.2.17 2.24.26 3.96-11.27 1.12-22.97 1.63-34.32.86-18.67 0-37.51.43-56.26.17-7.48-2.67-9.46-9.63-9.38-44.56.26-89.12-.34-133.69.26-26.5.43-48.6-16.09-49.04-43.62 0-3.96-.6-8-.6-11.96 0-52.56-.09-105.12 0-157.69 0-7.31.43-14.88 2.06-21.94 4.65-19.53 21.25-31.49 43.27-31.57 44.91 0 89.73-.26 134.63.26 9.55.09 11.96-3.01 11.87-12.13-.43-42.41-.26-84.82-.17-127.23 0-30.63 18.75-49.04 49.55-49.04h173.34c23.66 0 41.46 12.9 47.57 33.46 1.29 4.22 1.29 8.52 1.29 12.73v128.18c0 9.18 4.44 13.76 13.33 13.76h131.79c29.59 0 47.92 17.72 48.09 47.4.26 56.86.26 113.73 0 170.59-.17 30.88-18.24 48.43-49.04 48.52-43.96.09-87.92 0-131.79.17-12.3 0-12.3.17-12.3 12.3v88.87c8.86-4.13 16.52-7.74 24.17-11.36 57.47-27.01 117.77-41.46 181.52-41.03 5.94 0 11.7.69 17.21 2.49 8.17 2.67 12.99 8.43 12.99 17.03.17 59.01.26 118.03 0 177.04 0 11.44-9.46 18.07-24.26 18.5-39.4 1.03-78.11 6.97-116.14 17.29-38.63 10.58-75.79 24.78-111.75 44.13m62.66-550.19h-63.57c-17.81 0-24.6-6.71-24.6-24.35V125.1c0-11.27-.86-12.13-11.96-12.13H419.31c-12.47 0-12.9.52-12.9 12.99V273.5c0 19.44-6.8 26.24-25.98 26.24H225.58c-10.5 0-12.39 2.24-12.13 12.3 1.46 52.56.6 105.04.52 157.6 0 12.39.17 13.25 12.47 13.25h152.09c20.04 0 27.79 7.83 27.79 27.87 0 43.01.17 86.03-.09 129.04 0 7.57 1.98 12.39 8.6 16.6 26.24 16.78 49.64 37.16 71.06 59.79 4.99 5.25 8.95 11.61 15.23 15.48 1.12-.77 2.06-1.12 2.58-1.72 24.78-28.82 52.82-54.02 84.39-75.19 5.25-3.53 5.68-8.09 5.68-13.42V510.41c0-20.39 7.23-27.53 27.87-27.53 51.36 0 102.63-.09 153.99.09 7.91 0 11.79-2.06 11.79-10.84-.26-53.77-.26-107.53 0-161.3 0-8.52-3.27-11.27-11.53-11.18-30.71.26-61.42.09-94.03 0M479.19 792.58c3.27-17.72-6.88-30.02-17.64-41.46-76.74-81.9-170.5-128.61-283.03-136.7-6.02-.43-8.26 1.03-8.26 7.31.17 39.66.17 79.32 0 118.89 0 6.11 2.49 7.66 8.17 8.09 23.23 1.63 46.37 4.82 69.08 9.81 67.44 14.71 130.85 39.66 189.34 76.65 13.68 8.6 27.01 17.72 42.24 27.79v-70.37m323.39-177.14c-9.38 1.46-18.84 2.67-28.13 4.3-61.51 11.1-117 36.22-167.84 72-29.94 21.16-57.55 45.08-79.49 74.84-3.53 4.73-6.19 9.63-6.19 15.91.17 24.6 0 49.12.09 73.72 0 1.72-.6 3.79 2.15 4.99 2.32-1.55 4.9-3.1 7.4-4.82 86.8-61.42 183.06-97.38 288.88-107.45 8.6-.77 10.67-3.36 10.58-11.53-.34-38.11-.09-76.13-.17-114.24 0-2.92 1.03-6.19-.95-8-8.77 0-16.69 0-26.32.17v.09Z"/></svg>